<?xml version="1.0" encoding="UTF-8" standalone="no"?>
<!DOCTYPE svg PUBLIC "-//W3C//DTD SVG 1.1//EN"
 "http://www.w3.org/Graphics/SVG/1.1/DTD/svg11.dtd">
<!-- Generated by graphviz version 2.42.4 (0)
 -->
<!-- Pages: 1 -->
<svg width="384pt" height="116pt"
 viewBox="0.00 0.00 383.50 116.00" xmlns="http://www.w3.org/2000/svg" xmlns:xlink="http://www.w3.org/1999/xlink">
<g id="graph0" class="graph" transform="scale(1 1) rotate(0) translate(4 112)">
<!-- start -->
<g id="node1" class="node">
<title>start</title>
<ellipse fill="white" stroke="black" cx="18" cy="-90" rx="18" ry="18"/>
</g>
<!-- plan -->
<g id="node2" class="node">
<title>plan</title>
<polygon fill="white" stroke="black" points="108,-108 54,-108 54,-72 108,-72 108,-108"/>
<text text-anchor="middle" x="81" y="-86.9" font-family="Times,serif" font-size="12.00">Plan</text>
</g>
<!-- start&#45;&gt;plan -->
<g id="edge1" class="edge">
<title>start&#45;&gt;plan</title>
<path fill="none" stroke="black" d="M36.22,-90C36.22,-90 43.91,-90 43.91,-90"/>
<polygon fill="black" stroke="black" points="43.91,-93.5 53.91,-90 43.91,-86.5 43.91,-93.5"/>
</g>
<!-- development -->
<g id="node3" class="node">
<title>development</title>
<polygon fill="white" stroke="black" points="221.5,-108 126.5,-108 126.5,-72 221.5,-72 221.5,-108"/>
<text text-anchor="middle" x="174" y="-86.9" font-family="Times,serif" font-size="12.00">Development</text>
</g>
<!-- plan&#45;&gt;development -->
<g id="edge2" class="edge">
<title>plan&#45;&gt;development</title>
<path fill="none" stroke="black" d="M108.4,-90C108.4,-90 116.38,-90 116.38,-90"/>
<polygon fill="black" stroke="black" points="116.38,-93.5 126.38,-90 116.38,-86.5 116.38,-93.5"/>
</g>
<!-- milestone -->
<g id="node4" class="node">
<title>milestone</title>
<path fill="white" stroke="black" d="M302.5,-108C302.5,-108 251.5,-108 251.5,-108 245.5,-108 239.5,-102 239.5,-96 239.5,-96 239.5,-84 239.5,-84 239.5,-78 245.5,-72 251.5,-72 251.5,-72 302.5,-72 302.5,-72 308.5,-72 314.5,-78 314.5,-84 314.5,-84 314.5,-96 314.5,-96 314.5,-102 308.5,-108 302.5,-108"/>
<text text-anchor="middle" x="277" y="-86.9" font-family="Times,serif" font-size="12.00">Milestone</text>
</g>
<!-- development&#45;&gt;milestone -->
<g id="edge3" class="edge">
<title>development&#45;&gt;milestone</title>
<path fill="none" stroke="black" d="M221.58,-96C221.58,-96 229.49,-96 229.49,-96"/>
<polygon fill="black" stroke="black" points="229.49,-99.5 239.49,-96 229.49,-92.5 229.49,-99.5"/>
</g>
<!-- rc -->
<g id="node5" class="node">
<title>rc</title>
<path fill="white" stroke="black" d="M201,-36C201,-36 147,-36 147,-36 141,-36 135,-30 135,-24 135,-24 135,-12 135,-12 135,-6 141,0 147,0 147,0 201,0 201,0 207,0 213,-6 213,-12 213,-12 213,-24 213,-24 213,-30 207,-36 201,-36"/>
<text text-anchor="middle" x="174" y="-21.4" font-family="Times,serif" font-size="12.00">Release</text>
<text text-anchor="middle" x="174" y="-8.4" font-family="Times,serif" font-size="12.00">Candidate</text>
</g>
<!-- development&#45;&gt;rc -->
<g id="edge5" class="edge">
<title>development&#45;&gt;rc</title>
<path fill="none" stroke="black" d="M174,-71.83C174,-71.83 174,-46.41 174,-46.41"/>
<polygon fill="black" stroke="black" points="177.5,-46.41 174,-36.41 170.5,-46.41 177.5,-46.41"/>
</g>
<!-- milestone&#45;&gt;development -->
<g id="edge4" class="edge">
<title>milestone&#45;&gt;development</title>
<path fill="none" stroke="black" d="M239.23,-84C239.23,-84 231.59,-84 231.59,-84"/>
<polygon fill="black" stroke="black" points="231.59,-80.5 221.59,-84 231.59,-87.5 231.59,-80.5"/>
</g>
<!-- release_review -->
<g id="node6" class="node">
<title>release_review</title>
<polygon fill="white" stroke="black" points="294.5,-36 231.5,-36 231.5,0 294.5,0 294.5,-36"/>
<text text-anchor="middle" x="263" y="-21.4" font-family="Times,serif" font-size="12.00">Release</text>
<text text-anchor="middle" x="263" y="-8.4" font-family="Times,serif" font-size="12.00">Review</text>
</g>
<!-- rc&#45;&gt;release_review -->
<g id="edge6" class="edge">
<title>rc&#45;&gt;release_review</title>
<path fill="none" stroke="black" d="M213.04,-18C213.04,-18 221.48,-18 221.48,-18"/>
<polygon fill="black" stroke="black" points="221.48,-21.5 231.48,-18 221.48,-14.5 221.48,-21.5"/>
</g>
<!-- release -->
<g id="node7" class="node">
<title>release</title>
<path fill="white" stroke="black" d="M363.5,-36C363.5,-36 324.5,-36 324.5,-36 318.5,-36 312.5,-30 312.5,-24 312.5,-24 312.5,-12 312.5,-12 312.5,-6 318.5,0 324.5,0 324.5,0 363.5,0 363.5,0 369.5,0 375.5,-6 375.5,-12 375.5,-12 375.5,-24 375.5,-24 375.5,-30 369.5,-36 363.5,-36"/>
<text text-anchor="middle" x="344" y="-14.9" font-family="Times,serif" font-size="12.00">Release</text>
</g>
<!-- release_review&#45;&gt;release -->
<g id="edge7" class="edge">
<title>release_review&#45;&gt;release</title>
<path fill="none" stroke="black" d="M294.55,-18C294.55,-18 302.4,-18 302.4,-18"/>
<polygon fill="black" stroke="black" points="302.4,-21.5 312.4,-18 302.4,-14.5 302.4,-21.5"/>
</g>
<!-- release&#45;&gt;plan -->
<g id="edge8" class="edge">
<title>release&#45;&gt;plan</title>
<path fill="none" stroke="black" d="M345,-36.42C345,-45.28 345,-54 345,-54 345,-54 81,-54 81,-54 81,-54 81,-61.58 81,-61.58"/>
<polygon fill="black" stroke="black" points="77.5,-61.58 81,-71.58 84.5,-61.58 77.5,-61.58"/>
</g>
</g>
</svg>
