<?xml version="1.0" encoding="UTF-8" standalone="no"?>
<!DOCTYPE svg PUBLIC "-//W3C//DTD SVG 1.1//EN"
 "http://www.w3.org/Graphics/SVG/1.1/DTD/svg11.dtd">
<!-- Generated by graphviz version 2.42.4 (0)
 -->
<!-- Pages: 1 -->
<svg width="505pt" height="134pt"
 viewBox="0.00 0.00 505.00 134.00" xmlns="http://www.w3.org/2000/svg" xmlns:xlink="http://www.w3.org/1999/xlink">
<g id="graph0" class="graph" transform="scale(1 1) rotate(0) translate(4 130)">
<!-- start -->
<g id="node1" class="node">
<title>start</title>
<ellipse fill="white" stroke="black" cx="18" cy="-90" rx="18" ry="18"/>
</g>
<!-- plan -->
<g id="node2" class="node">
<title>plan</title>
<polygon fill="white" stroke="black" points="108,-108 54,-108 54,-72 108,-72 108,-108"/>
<text text-anchor="middle" x="81" y="-86.9" font-family="Times,serif" font-size="12.00">Plan</text>
</g>
<!-- start&#45;&gt;plan -->
<g id="edge1" class="edge">
<title>start&#45;&gt;plan</title>
<path fill="none" stroke="black" d="M36.22,-90C36.22,-90 43.91,-90 43.91,-90"/>
<polygon fill="black" stroke="black" points="43.91,-93.5 53.91,-90 43.91,-86.5 43.91,-93.5"/>
</g>
<!-- plan_review -->
<g id="node3" class="node">
<title>plan_review</title>
<polygon fill="white" stroke="black" points="186,-108 126,-108 126,-72 186,-72 186,-108"/>
<text text-anchor="middle" x="156" y="-93.4" font-family="Times,serif" font-size="12.00">Plan</text>
<text text-anchor="middle" x="156" y="-80.4" font-family="Times,serif" font-size="12.00">Review</text>
</g>
<!-- plan&#45;&gt;plan_review -->
<g id="edge2" class="edge">
<title>plan&#45;&gt;plan_review</title>
<path fill="none" stroke="black" d="M108.08,-90C108.08,-90 115.91,-90 115.91,-90"/>
<polygon fill="black" stroke="black" points="115.91,-93.5 125.91,-90 115.91,-86.5 115.91,-93.5"/>
</g>
<!-- development -->
<g id="node4" class="node">
<title>development</title>
<polygon fill="white" stroke="black" points="299.5,-108 204.5,-108 204.5,-72 299.5,-72 299.5,-108"/>
<text text-anchor="middle" x="252" y="-86.9" font-family="Times,serif" font-size="12.00">Development</text>
</g>
<!-- plan_review&#45;&gt;development -->
<g id="edge3" class="edge">
<title>plan_review&#45;&gt;development</title>
<path fill="none" stroke="black" d="M186.11,-90C186.11,-90 194.41,-90 194.41,-90"/>
<polygon fill="black" stroke="black" points="194.41,-93.5 204.41,-90 194.41,-86.5 194.41,-93.5"/>
</g>
<!-- milestone -->
<g id="node5" class="node">
<title>milestone</title>
<path fill="white" stroke="black" d="M380.5,-108C380.5,-108 329.5,-108 329.5,-108 323.5,-108 317.5,-102 317.5,-96 317.5,-96 317.5,-84 317.5,-84 317.5,-78 323.5,-72 329.5,-72 329.5,-72 380.5,-72 380.5,-72 386.5,-72 392.5,-78 392.5,-84 392.5,-84 392.5,-96 392.5,-96 392.5,-102 386.5,-108 380.5,-108"/>
<text text-anchor="middle" x="355" y="-86.9" font-family="Times,serif" font-size="12.00">Milestone</text>
</g>
<!-- development&#45;&gt;milestone -->
<g id="edge4" class="edge">
<title>development&#45;&gt;milestone</title>
<path fill="none" stroke="black" d="M299.58,-96C299.58,-96 307.49,-96 307.49,-96"/>
<polygon fill="black" stroke="black" points="307.49,-99.5 317.49,-96 307.49,-92.5 307.49,-99.5"/>
</g>
<!-- rc -->
<g id="node7" class="node">
<title>rc</title>
<path fill="white" stroke="black" d="M287.5,-36C287.5,-36 216.5,-36 216.5,-36 210.5,-36 204.5,-30 204.5,-24 204.5,-24 204.5,-12 204.5,-12 204.5,-6 210.5,0 216.5,0 216.5,0 287.5,0 287.5,0 293.5,0 299.5,-6 299.5,-12 299.5,-12 299.5,-24 299.5,-24 299.5,-30 293.5,-36 287.5,-36"/>
<text text-anchor="middle" x="252" y="-21.4" font-family="Times,serif" font-size="12.00">Specification</text>
<text text-anchor="middle" x="252" y="-8.4" font-family="Times,serif" font-size="12.00">Version</text>
</g>
<!-- development&#45;&gt;rc -->
<g id="edge8" class="edge">
<title>development&#45;&gt;rc</title>
<path fill="none" stroke="black" d="M252,-71.83C252,-71.83 252,-46.41 252,-46.41"/>
<polygon fill="black" stroke="black" points="255.5,-46.41 252,-36.41 248.5,-46.41 255.5,-46.41"/>
</g>
<!-- milestone&#45;&gt;development -->
<g id="edge5" class="edge">
<title>milestone&#45;&gt;development</title>
<path fill="none" stroke="black" d="M317.23,-84C317.23,-84 309.59,-84 309.59,-84"/>
<polygon fill="black" stroke="black" points="309.59,-80.5 299.59,-84 309.59,-87.5 309.59,-80.5"/>
</g>
<!-- progress_review -->
<g id="node6" class="node">
<title>progress_review</title>
<polygon fill="white" stroke="black" points="481.5,-108 410.5,-108 410.5,-72 481.5,-72 481.5,-108"/>
<text text-anchor="middle" x="446" y="-93.4" font-family="Times,serif" font-size="12.00">Progress</text>
<text text-anchor="middle" x="446" y="-80.4" font-family="Times,serif" font-size="12.00">Review</text>
</g>
<!-- milestone&#45;&gt;progress_review -->
<g id="edge6" class="edge">
<title>milestone&#45;&gt;progress_review</title>
<path fill="none" stroke="black" d="M392.54,-90C392.54,-90 400.3,-90 400.3,-90"/>
<polygon fill="black" stroke="black" points="400.3,-93.5 410.3,-90 400.3,-86.5 400.3,-93.5"/>
</g>
<!-- progress_review&#45;&gt;development -->
<g id="edge7" class="edge">
<title>progress_review&#45;&gt;development</title>
<path fill="none" stroke="black" d="M446,-108.42C446,-117.28 446,-126 446,-126 446,-126 252,-126 252,-126 252,-126 252,-118.42 252,-118.42"/>
<polygon fill="black" stroke="black" points="255.5,-118.42 252,-108.42 248.5,-118.42 255.5,-118.42"/>
</g>
<!-- release_review -->
<g id="node8" class="node">
<title>release_review</title>
<polygon fill="white" stroke="black" points="380.5,-36 317.5,-36 317.5,0 380.5,0 380.5,-36"/>
<text text-anchor="middle" x="349" y="-21.4" font-family="Times,serif" font-size="12.00">Release</text>
<text text-anchor="middle" x="349" y="-8.4" font-family="Times,serif" font-size="12.00">Review</text>
</g>
<!-- rc&#45;&gt;release_review -->
<g id="edge9" class="edge">
<title>rc&#45;&gt;release_review</title>
<path fill="none" stroke="black" d="M299.65,-18C299.65,-18 307.44,-18 307.44,-18"/>
<polygon fill="black" stroke="black" points="307.44,-21.5 317.44,-18 307.44,-14.5 307.44,-21.5"/>
</g>
<!-- final -->
<g id="node9" class="node">
<title>final</title>
<path fill="white" stroke="black" d="M485,-36C485,-36 411,-36 411,-36 405,-36 399,-30 399,-24 399,-24 399,-12 399,-12 399,-6 405,0 411,0 411,0 485,0 485,0 491,0 497,-6 497,-12 497,-12 497,-24 497,-24 497,-30 491,-36 485,-36"/>
<text text-anchor="middle" x="448" y="-21.4" font-family="Times,serif" font-size="12.00">Ratified Final</text>
<text text-anchor="middle" x="448" y="-8.4" font-family="Times,serif" font-size="12.00">Specification</text>
</g>
<!-- release_review&#45;&gt;final -->
<g id="edge10" class="edge">
<title>release_review&#45;&gt;final</title>
<path fill="none" stroke="black" d="M380.6,-18C380.6,-18 388.66,-18 388.66,-18"/>
<polygon fill="black" stroke="black" points="388.66,-21.5 398.66,-18 388.66,-14.5 388.66,-21.5"/>
</g>
<!-- final&#45;&gt;plan -->
<g id="edge11" class="edge">
<title>final&#45;&gt;plan</title>
<path fill="none" stroke="black" d="M404.75,-36.42C404.75,-45.28 404.75,-54 404.75,-54 404.75,-54 81,-54 81,-54 81,-54 81,-61.58 81,-61.58"/>
<polygon fill="black" stroke="black" points="77.5,-61.58 81,-71.58 84.5,-61.58 77.5,-61.58"/>
</g>
</g>
</svg>
