<?xml version="1.0" encoding="UTF-8" standalone="no"?>
<!DOCTYPE svg PUBLIC "-//W3C//DTD SVG 1.1//EN"
 "http://www.w3.org/Graphics/SVG/1.1/DTD/svg11.dtd">
<!-- Generated by graphviz version 2.40.1 (0)
 -->
<!-- Title: %3 Pages: 1 -->
<svg width="718pt" height="325pt"
 viewBox="0.00 0.00 718.00 325.00" xmlns="http://www.w3.org/2000/svg" xmlns:xlink="http://www.w3.org/1999/xlink">
<g id="graph0" class="graph" transform="scale(1 1) rotate(0) translate(4 321)">
<title>%3</title>
<!-- search -->
<g id="node1" class="node">
<title>search</title>
<polygon fill="#ffffff" stroke="#000000" stroke-width="2" points="185,-317 25,-317 25,-257 185,-257 185,-317"/>
<text text-anchor="middle" x="105" y="-293.8" font-family="Times,serif" font-size="24.00" fill="#000000">Search for</text>
<text text-anchor="middle" x="105" y="-267.8" font-family="Times,serif" font-size="24.00" fill="#000000">Existing CQ</text>
</g>
<!-- found -->
<g id="node2" class="node">
<title>found</title>
<polygon fill="#ffffff" stroke="#000000" points="105,-238 0,-204 105,-170 210,-204 105,-238"/>
<text text-anchor="middle" x="105" y="-197.8" font-family="Times,serif" font-size="24.00" fill="#000000">Found?</text>
</g>
<!-- search&#45;&gt;found -->
<g id="edge1" class="edge">
<title>search&#45;&gt;found</title>
<path fill="none" stroke="#000000" d="M93.8876,-256.7956C93.191,-252.8887 93.0578,-249.1352 93.488,-244.9698"/>
<polygon fill="#000000" stroke="#000000" points="96.9598,-245.442 95.3295,-234.9734 90.0756,-244.1737 96.9598,-245.442"/>
</g>
<!-- create -->
<g id="node3" class="node">
<title>create</title>
<polygon fill="#ffffff" stroke="#000000" points="388.5,-222 245.5,-222 245.5,-186 388.5,-186 388.5,-222"/>
<text text-anchor="middle" x="317" y="-197.8" font-family="Times,serif" font-size="24.00" fill="#000000">Create CQ</text>
</g>
<!-- found&#45;&gt;create -->
<g id="edge4" class="edge">
<title>found&#45;&gt;create</title>
<path fill="none" stroke="#000000" d="M180.6777,-213.581C194.6887,-213.581 211.5251,-212.6883 235.1037,-210.9027"/>
<polygon fill="#000000" stroke="#000000" points="235.5453,-214.379 245.2437,-210.1139 235.0023,-207.4001 235.5453,-214.379"/>
<text text-anchor="middle" x="222.5192" y="-215.8276" font-family="Times,serif" font-size="12.00" fill="#000000">No</text>
</g>
<!-- none -->
<g id="node5" class="node">
<title>none</title>
<polygon fill="#ffffff" stroke="#000000" points="165.5,-139 44.5,-139 44.5,-79 165.5,-79 165.5,-139"/>
<text text-anchor="middle" x="105" y="-115.8" font-family="Times,serif" font-size="24.00" fill="#000000">No CQ</text>
<text text-anchor="middle" x="105" y="-89.8" font-family="Times,serif" font-size="24.00" fill="#000000">required</text>
</g>
<!-- found&#45;&gt;none -->
<g id="edge2" class="edge">
<title>found&#45;&gt;none</title>
<path fill="none" stroke="#000000" d="M93.6762,-173.6568C90.8358,-164.1893 90.0635,-157.0812 91.3595,-148.9208"/>
<polygon fill="#000000" stroke="#000000" points="94.7915,-149.6169 93.7015,-139.0783 87.9816,-147.9965 94.7915,-149.6169"/>
<text text-anchor="middle" x="115" y="-151.4" font-family="Times,serif" font-size="12.00" fill="#000000">Yes</text>
</g>
<!-- attach -->
<g id="node4" class="node">
<title>attach</title>
<polygon fill="#ffffff" stroke="#000000" points="585.5,-222 424.5,-222 424.5,-186 585.5,-186 585.5,-222"/>
<text text-anchor="middle" x="505" y="-197.8" font-family="Times,serif" font-size="24.00" fill="#000000">Attach code</text>
</g>
<!-- create&#45;&gt;attach -->
<g id="edge5" class="edge">
<title>create&#45;&gt;attach</title>
<path fill="none" stroke="#000000" d="M388.7967,-217.2673C398.4999,-218.8416 406.874,-220.0043 414.3491,-220.7552"/>
<polygon fill="#000000" stroke="#000000" points="414.1198,-224.2479 424.3634,-221.5427 414.6686,-217.2695 414.1198,-224.2479"/>
</g>
<!-- pmc -->
<g id="node6" class="node">
<title>pmc</title>
<polygon fill="#ffffff" stroke="#000000" points="392.5,-127 201.5,-127 201.5,-91 392.5,-91 392.5,-127"/>
<text text-anchor="middle" x="297" y="-102.8" font-family="Times,serif" font-size="24.00" fill="#000000">PMC Approval</text>
</g>
<!-- attach&#45;&gt;pmc -->
<g id="edge6" class="edge">
<title>attach&#45;&gt;pmc</title>
<path fill="none" stroke="#000000" d="M483.2815,-185.7945C452.1573,-160.4701 434.3232,-151.6682 365.4475,-130.0065"/>
<polygon fill="#000000" stroke="#000000" points="366.4447,-126.6512 355.8559,-127.0083 364.3562,-133.3324 366.4447,-126.6512"/>
</g>
<!-- none&#45;&gt;pmc -->
<!-- approved -->
<g id="node9" class="node">
<title>approved</title>
<polygon fill="#ffffff" stroke="#000000" stroke-width="2" points="479,-60 273,-60 273,0 479,0 479,-60"/>
<text text-anchor="middle" x="376" y="-36.8" font-family="Times,serif" font-size="24.00" fill="#000000">May be used by</text>
<text text-anchor="middle" x="376" y="-10.8" font-family="Times,serif" font-size="24.00" fill="#000000">Eclipse Project</text>
</g>
<!-- none&#45;&gt;approved -->
<g id="edge9" class="edge">
<title>none&#45;&gt;approved</title>
<path fill="none" stroke="#000000" d="M142.8036,-78.7557C181.609,-49.1668 205.2747,-39.1685 262.5293,-34.5558"/>
<polygon fill="#000000" stroke="#000000" points="263.0936,-38.0241 272.8128,-33.8066 262.5849,-31.0426 263.0936,-38.0241"/>
</g>
<!-- checkin -->
<g id="node7" class="node">
<title>checkin</title>
<polygon fill="#ffffff" stroke="#000000" points="552,-127 428,-127 428,-91 552,-91 552,-127"/>
<text text-anchor="middle" x="490" y="-102.8" font-family="Times,serif" font-size="24.00" fill="#000000">Check&#45;in</text>
</g>
<!-- pmc&#45;&gt;checkin -->
<g id="edge7" class="edge">
<title>pmc&#45;&gt;checkin</title>
<path fill="none" stroke="#000000" d="M372.1804,-90.9215C398.9159,-85.5382 415.5188,-84.7084 433.1392,-88.432"/>
<polygon fill="#000000" stroke="#000000" points="432.5494,-91.8934 443.1038,-90.9691 434.2766,-85.1098 432.5494,-91.8934"/>
</g>
<!-- approval -->
<g id="node8" class="node">
<title>approval</title>
<polygon fill="#ffffff" stroke="#000000" points="710,-139 588,-139 588,-79 710,-79 710,-139"/>
<text text-anchor="middle" x="649" y="-115.8" font-family="Times,serif" font-size="24.00" fill="#000000">License</text>
<text text-anchor="middle" x="649" y="-89.8" font-family="Times,serif" font-size="24.00" fill="#000000">Certified</text>
</g>
<!-- checkin&#45;&gt;approval -->
<g id="edge8" class="edge">
<title>checkin&#45;&gt;approval</title>
<path fill="none" stroke="#000000" d="M552.3117,-105.1065C562.2198,-104.5518 570.5336,-104.1542 577.7705,-103.9136"/>
<polygon fill="#000000" stroke="#000000" points="578.0804,-107.4073 587.9938,-103.669 577.9129,-100.4093 578.0804,-107.4073"/>
</g>
<!-- approval&#45;&gt;approved -->
<g id="edge10" class="edge">
<title>approval&#45;&gt;approved</title>
<path fill="none" stroke="#000000" d="M609.3172,-78.9782C573.1901,-53.308 549.0618,-44.2905 489.4204,-38.1767"/>
<polygon fill="#000000" stroke="#000000" points="489.4119,-34.6597 479.1213,-37.1803 488.7377,-41.6271 489.4119,-34.6597"/>
</g>
</g>
</svg>
