<?xml version="1.0" encoding="UTF-8" standalone="no"?>
<!DOCTYPE svg PUBLIC "-//W3C//DTD SVG 1.1//EN"
 "http://www.w3.org/Graphics/SVG/1.1/DTD/svg11.dtd">
<!-- Generated by graphviz version 2.40.1 (0)
 -->
<!-- Title: %3 Pages: 1 -->
<svg width="1018pt" height="434pt"
 viewBox="0.00 0.00 1018.00 434.00" xmlns="http://www.w3.org/2000/svg" xmlns:xlink="http://www.w3.org/1999/xlink">
<g id="graph0" class="graph" transform="scale(1 1) rotate(0) translate(4 430)">
<title>%3</title>
<!-- creation -->
<g id="node1" class="node">
<title>creation</title>
<polygon fill="#ffffff" stroke="#000000" points="217,-426 0,-426 0,-340 217,-340 217,-426"/>
<text text-anchor="middle" x="108.5" y="-402.8" font-family="Times,serif" font-size="24.00" fill="#000000">EMO declares</text>
<text text-anchor="middle" x="108.5" y="-376.8" font-family="Times,serif" font-size="24.00" fill="#000000">successful</text>
<text text-anchor="middle" x="108.5" y="-350.8" font-family="Times,serif" font-size="24.00" fill="#000000">Creation Review</text>
</g>
<!-- provision -->
<g id="node2" class="node">
<title>provision</title>
<polygon fill="#ffffff" stroke="#000000" points="184.5,-322 32.5,-322 32.5,-236 184.5,-236 184.5,-322"/>
<text text-anchor="middle" x="108.5" y="-298.8" font-family="Times,serif" font-size="24.00" fill="#000000">Eclipse</text>
<text text-anchor="middle" x="108.5" y="-272.8" font-family="Times,serif" font-size="24.00" fill="#000000">Webmaster</text>
<text text-anchor="middle" x="108.5" y="-246.8" font-family="Times,serif" font-size="24.00" fill="#000000">Provisions</text>
</g>
<!-- creation&#45;&gt;provision -->
<g id="edge1" class="edge">
<title>creation&#45;&gt;provision</title>
<path fill="none" stroke="#000000" d="M108.5,-339.6772C108.5,-337.2002 108.5,-334.7231 108.5,-332.246"/>
<polygon fill="#000000" stroke="#000000" points="112.0001,-332.0625 108.5,-322.0625 105.0001,-332.0625 112.0001,-332.0625"/>
</g>
<!-- initial -->
<g id="node3" class="node">
<title>initial</title>
<polygon fill="#ffffff" stroke="#000000" points="483,-322 235,-322 235,-236 483,-236 483,-322"/>
<text text-anchor="middle" x="359" y="-298.8" font-family="Times,serif" font-size="24.00" fill="#000000">Committer submits</text>
<text text-anchor="middle" x="359" y="-272.8" font-family="Times,serif" font-size="24.00" fill="#000000">Initial</text>
<text text-anchor="middle" x="359" y="-246.8" font-family="Times,serif" font-size="24.00" fill="#000000">Contribution</text>
</g>
<!-- provision&#45;&gt;initial -->
<g id="edge2" class="edge">
<title>provision&#45;&gt;initial</title>
<path fill="none" stroke="#000000" d="M184.6785,-279C197.296,-279 210.7026,-279 224.2584,-279"/>
<polygon fill="#000000" stroke="#000000" points="224.643,-282.5001 234.643,-279 224.643,-275.5001 224.643,-282.5001"/>
</g>
<!-- checkin -->
<g id="node4" class="node">
<title>checkin</title>
<polygon fill="#ffffff" stroke="#000000" points="686,-322 544,-322 544,-236 686,-236 686,-322"/>
<text text-anchor="middle" x="615" y="-298.8" font-family="Times,serif" font-size="24.00" fill="#000000">IP Team</text>
<text text-anchor="middle" x="615" y="-272.8" font-family="Times,serif" font-size="24.00" fill="#000000">grants</text>
<text text-anchor="middle" x="615" y="-246.8" font-family="Times,serif" font-size="24.00" fill="#000000">&quot;check&#45;in&quot;</text>
</g>
<!-- initial&#45;&gt;checkin -->
<g id="edge3" class="edge">
<title>initial&#45;&gt;checkin</title>
<path fill="none" stroke="#000000" d="M483.2505,-279C500.2843,-279 517.4067,-279 533.4097,-279"/>
<polygon fill="#000000" stroke="#000000" points="533.7522,-282.5001 543.7522,-279 533.7521,-275.5001 533.7522,-282.5001"/>
</g>
<!-- parallel -->
<g id="node5" class="node">
<title>parallel</title>
<polygon fill="#ffffff" stroke="#000000" points="729,-218 501,-218 501,-158 729,-158 729,-218"/>
<text text-anchor="middle" x="615" y="-194.8" font-family="Times,serif" font-size="24.00" fill="#000000">IP Team</text>
<text text-anchor="middle" x="615" y="-168.8" font-family="Times,serif" font-size="24.00" fill="#000000">completes review</text>
</g>
<!-- checkin&#45;&gt;parallel -->
<g id="edge5" class="edge">
<title>checkin&#45;&gt;parallel</title>
<path fill="none" stroke="#000000" d="M615,-235.7856C615,-233.3147 615,-230.8438 615,-228.3729"/>
<polygon fill="#000000" stroke="#000000" points="618.5001,-228.2148 615,-218.2148 611.5001,-228.2149 618.5001,-228.2148"/>
</g>
<!-- push -->
<g id="node7" class="node">
<title>push</title>
<polygon fill="#ffffff" stroke="#000000" points="952.5,-322 804.5,-322 804.5,-236 952.5,-236 952.5,-322"/>
<text text-anchor="middle" x="878.5" y="-298.8" font-family="Times,serif" font-size="24.00" fill="#000000">Committer</text>
<text text-anchor="middle" x="878.5" y="-272.8" font-family="Times,serif" font-size="24.00" fill="#000000">pushes to</text>
<text text-anchor="middle" x="878.5" y="-246.8" font-family="Times,serif" font-size="24.00" fill="#000000">Project Git</text>
</g>
<!-- checkin&#45;&gt;push -->
<g id="edge4" class="edge">
<title>checkin&#45;&gt;push</title>
<path fill="none" stroke="#000000" d="M686.3069,-279C719.6001,-279 759.4678,-279 794.2402,-279"/>
<polygon fill="#000000" stroke="#000000" points="794.3774,-282.5001 804.3774,-279 794.3774,-275.5001 794.3774,-282.5001"/>
</g>
<!-- approval -->
<g id="node6" class="node">
<title>approval</title>
<polygon fill="#ffffff" stroke="#000000" points="687,-140 543,-140 543,-54 687,-54 687,-140"/>
<text text-anchor="middle" x="615" y="-116.8" font-family="Times,serif" font-size="24.00" fill="#000000">IP Team</text>
<text text-anchor="middle" x="615" y="-90.8" font-family="Times,serif" font-size="24.00" fill="#000000">grants</text>
<text text-anchor="middle" x="615" y="-64.8" font-family="Times,serif" font-size="24.00" fill="#000000">&quot;approval&quot;</text>
</g>
<!-- parallel&#45;&gt;approval -->
<g id="edge6" class="edge">
<title>parallel&#45;&gt;approval</title>
<path fill="none" stroke="#000000" d="M615,-157.6324C615,-155.1545 615,-152.6766 615,-150.1987"/>
<polygon fill="#000000" stroke="#000000" points="618.5001,-150.0117 615,-140.0117 611.5001,-150.0118 618.5001,-150.0117"/>
</g>
<!-- review -->
<g id="node9" class="node">
<title>review</title>
<polygon fill="#ffffff" stroke="#000000" points="981.5,-140 775.5,-140 775.5,-54 981.5,-54 981.5,-140"/>
<text text-anchor="middle" x="878.5" y="-116.8" font-family="Times,serif" font-size="24.00" fill="#000000">Project Team</text>
<text text-anchor="middle" x="878.5" y="-90.8" font-family="Times,serif" font-size="24.00" fill="#000000">engages in a</text>
<text text-anchor="middle" x="878.5" y="-64.8" font-family="Times,serif" font-size="24.00" fill="#000000">Release Review</text>
</g>
<!-- approval&#45;&gt;review -->
<g id="edge9" class="edge">
<title>approval&#45;&gt;review</title>
<path fill="none" stroke="#000000" d="M687.0025,-97C711.1884,-97 738.7822,-97 765.3468,-97"/>
<polygon fill="#000000" stroke="#000000" points="765.4683,-100.5001 775.4683,-97 765.4683,-93.5001 765.4683,-100.5001"/>
</g>
<!-- develop -->
<g id="node8" class="node">
<title>develop</title>
<polygon fill="#ffffff" stroke="#000000" points="1010,-218 747,-218 747,-158 1010,-158 1010,-218"/>
<text text-anchor="middle" x="878.5" y="-194.8" font-family="Times,serif" font-size="24.00" fill="#000000">Committers and</text>
<text text-anchor="middle" x="878.5" y="-168.8" font-family="Times,serif" font-size="24.00" fill="#000000">contributors engage</text>
</g>
<!-- push&#45;&gt;develop -->
<g id="edge7" class="edge">
<title>push&#45;&gt;develop</title>
<path fill="none" stroke="#000000" d="M878.5,-235.7856C878.5,-233.3147 878.5,-230.8438 878.5,-228.3729"/>
<polygon fill="#000000" stroke="#000000" points="882.0001,-228.2148 878.5,-218.2148 875.0001,-228.2149 882.0001,-228.2148"/>
</g>
<!-- develop&#45;&gt;review -->
<g id="edge8" class="edge">
<title>develop&#45;&gt;review</title>
<path fill="none" stroke="#000000" d="M878.5,-157.6324C878.5,-155.1545 878.5,-152.6766 878.5,-150.1987"/>
<polygon fill="#000000" stroke="#000000" points="882.0001,-150.0117 878.5,-140.0117 875.0001,-150.0118 882.0001,-150.0117"/>
</g>
<!-- release -->
<g id="node10" class="node">
<title>release</title>
<polygon fill="#ffffff" stroke="#000000" stroke-width="2" points="966.5,-36 790.5,-36 790.5,0 966.5,0 966.5,-36"/>
<text text-anchor="middle" x="878.5" y="-11.8" font-family="Times,serif" font-size="24.00" fill="#000000">First Release</text>
</g>
<!-- review&#45;&gt;release -->
<g id="edge10" class="edge">
<title>review&#45;&gt;release</title>
<path fill="none" stroke="#000000" d="M878.5,-53.78C878.5,-51.3088 878.5,-48.8376 878.5,-46.3664"/>
<polygon fill="#000000" stroke="#000000" points="882.0001,-46.207 878.5,-36.207 875.0001,-46.2071 882.0001,-46.207"/>
</g>
</g>
</svg>
