<?xml version="1.0" encoding="UTF-8" standalone="no"?>
<!DOCTYPE svg PUBLIC "-//W3C//DTD SVG 1.1//EN"
 "http://www.w3.org/Graphics/SVG/1.1/DTD/svg11.dtd">
<!-- Generated by graphviz version 2.40.1 (0)
 -->
<!-- Title: %3 Pages: 1 -->
<svg width="525pt" height="152pt"
 viewBox="0.00 0.00 524.50 152.00" xmlns="http://www.w3.org/2000/svg" xmlns:xlink="http://www.w3.org/1999/xlink">
<g id="graph0" class="graph" transform="scale(1 1) rotate(0) translate(4 148)">
<title>%3</title>
<!-- create -->
<g id="node1" class="node">
<title>create</title>
<polygon fill="#ffffff" stroke="#000000" stroke-width="2" points="152,-144 9,-144 9,-108 152,-108 152,-144"/>
<text text-anchor="middle" x="80.5" y="-119.8" font-family="Times,serif" font-size="24.00" fill="#000000">Create CQ</text>
</g>
<!-- attach -->
<g id="node2" class="node">
<title>attach</title>
<polygon fill="#ffffff" stroke="#000000" points="161,-90 0,-90 0,-54 161,-54 161,-90"/>
<text text-anchor="middle" x="80.5" y="-65.8" font-family="Times,serif" font-size="24.00" fill="#000000">Attach code</text>
</g>
<!-- create&#45;&gt;attach -->
<g id="edge1" class="edge">
<title>create&#45;&gt;attach</title>
<path fill="none" stroke="#000000" d="M73.618,-107.9951C72.8676,-105.2234 72.4923,-102.7503 72.4919,-100.2204"/>
<polygon fill="#000000" stroke="#000000" points="75.9727,-100.621 74.129,-90.1878 69.0641,-99.4935 75.9727,-100.621"/>
</g>
<!-- pmc -->
<g id="node3" class="node">
<title>pmc</title>
<polygon fill="#ffffff" stroke="#000000" points="370,-90 179,-90 179,-54 370,-54 370,-90"/>
<text text-anchor="middle" x="274.5" y="-65.8" font-family="Times,serif" font-size="24.00" fill="#000000">PMC Approval</text>
</g>
<!-- attach&#45;&gt;pmc -->
<g id="edge2" class="edge">
<title>attach&#45;&gt;pmc</title>
<path fill="none" stroke="#000000" d="M161.2259,-72C163.6362,-72 166.1471,-72 168.7742,-72"/>
<polygon fill="#000000" stroke="#000000" points="168.8201,-75.5001 178.8201,-72 168.8201,-68.5001 168.8201,-75.5001"/>
</g>
<!-- checkin -->
<g id="node4" class="node">
<title>checkin</title>
<polygon fill="#ffffff" stroke="#000000" points="512.5,-90 388.5,-90 388.5,-54 512.5,-54 512.5,-90"/>
<text text-anchor="middle" x="450.5" y="-65.8" font-family="Times,serif" font-size="24.00" fill="#000000">Check&#45;in</text>
</g>
<!-- pmc&#45;&gt;checkin -->
<g id="edge3" class="edge">
<title>pmc&#45;&gt;checkin</title>
<path fill="none" stroke="#000000" d="M370.0801,-72C372.9614,-72 375.689,-72 378.2874,-72"/>
<polygon fill="#000000" stroke="#000000" points="378.3037,-75.5001 388.3037,-72 378.3036,-68.5001 378.3037,-75.5001"/>
</g>
<!-- approval -->
<g id="node5" class="node">
<title>approval</title>
<polygon fill="#ffffff" stroke="#000000" stroke-width="2" points="516.5,-36 384.5,-36 384.5,0 516.5,0 516.5,-36"/>
<text text-anchor="middle" x="450.5" y="-11.8" font-family="Times,serif" font-size="24.00" fill="#000000">Approved</text>
</g>
<!-- checkin&#45;&gt;approval -->
<g id="edge4" class="edge">
<title>checkin&#45;&gt;approval</title>
<path fill="none" stroke="#000000" d="M456.8743,-53.9086C457.6901,-51.0548 458.2028,-48.5904 458.4125,-46.2575"/>
<polygon fill="#000000" stroke="#000000" points="461.8711,-45.6689 457.3896,-36.0686 454.9061,-46.3682 461.8711,-45.6689"/>
</g>
</g>
</svg>
